#!OML:ASF E:\acrobat2\Project_11_07_03\Capture day 1\Session 1\Acrobat.ASF
:FULLY-SPECIFIED
:DEGREES
742
root 12.9153 20.4926 10.1823 3.45836 4.55602 1.68261
lowerback -6.50343 1.05345 -0.60241
upperback -0.779182 1.51273 -2.11836
thorax 2.88409 0.757615 -1.71137
lowerneck 0.01216 -3.02632 0.0418579
upperneck 6.10799 -4.19443 2.77994
head 1.96768 -2.0293 0.79129
rclavicle -3.03147e-015 1.82882e-014
rhumerus -37.3513 -7.3228 -82.8575
rradius 27.6836
rwrist 6.11635
rhand -4.95268 -38.0605
rfingers 7.12502
rthumb 20.8389 -66.9614
lclavicle -3.03147e-015 1.82882e-014
lhumerus -31.0555 -8.07867 86.7498
lradius 22.1523
lwrist 6.60071
lhand -3.19391 -13.9504
lfingers 7.12502
lthumb 22.5279 14.7553
rfemur -5.01156 13.4285 16.7737
rtibia 23.4914
rfoot -41.045 -17.9155
rtoes 18.1267
lfemur -17.841 -3.39971 -15.7758
ltibia 39.226
lfoot -31.7873 -15.1091
ltoes -0.483086
743
root 12.9147 20.4932 10.1837 3.47242 4.59443 1.66812
lowerback -6.42478 1.05098 -0.576719
upperback -0.815545 1.50536 -2.11799
thorax 2.80303 0.754115 -1.72774
lowerneck -0.00342946 -3.01732 -0.00374772
upperneck 6.13568 -4.18379 2.80391
head 1.98109 -2.02404 0.806379
rclavicle 1.83814e-014 9.14409e-015
rhumerus -37.4326 -7.28643 -82.9197
rradius 27.6297
rwrist 6.14999
rhand -4.88142 -38.0923
rfingers 7.12502
rthumb 20.9073 -66.9857
lclavicle 1.83814e-014 9.14409e-015
lhumerus -31.1349 -8.0441 86.698
lradius 22.1835
lwrist 6.46352
lhand -3.07362 -13.9274
lfingers 7.12502
lthumb 22.6433 14.7643
rfemur -5.02043 13.5175 16.8028
rtibia 23.5188
rfoot -41.1791 -17.9041
rtoes 18.3933
lfemur -17.844 -3.42187 -15.7548
ltibia 39.207
lfoot -31.741 -15.1501
ltoes -0.440132
744
root 12.9139 20.4941 10.1843 3.48911 4.62462 1.66196
lowerback -6.33613 1.04385 -0.564925
upperback -0.860324 1.49235 -2.11565
thorax 2.70715 0.74759 -1.73499
lowerneck -0.0176335 -3.00722 -0.0466179
upperneck 6.17373 -4.17199 2.82724
head 1.99754 -2.01804 0.820824
rclavicle 1.02064e-014 -1.59028e-015
rhumerus -37.5117 -7.22217 -82.9839
rradius 27.5647
rwrist 6.20659
rhand -4.8093 -38.1373
rfingers 7.12502
rthumb 20.9766 -67.023
lclavicle 1.02064e-014 -1.59028e-015
lhumerus -31.2332 -8.02366 86.6563
lradius 22.2115
lwrist 6.35848
lhand -2.99982 -13.9051
lfingers 7.12502
lthumb 22.7141 14.778
rfemur -5.03715 13.589 16.8218
rtibia 23.5477
rfoot -41.2805 -17.9208
rtoes 18.5366
lfemur -17.8504 -3.45575 -15.7428
ltibia 39.1835
lfoot -31.6971 -15.1696
ltoes -0.396138
745
root 12.9124 20.4953 10.1838 3.51314 4.6438 1.66929
lowerback -6.25024 1.035 -0.580202
upperback -0.904212 1.47894 -2.11176
thorax 2.61301 0.740577 -1.72538
lowerneck -0.0417614 -3.00532 -0.0940246
upperneck 6.21532 -4.17243 2.87167
head 2.01783 -2.01766 0.842324
rclavicle -2.80597e-014 1.78906e-014
rhumerus -37.5715 -7.14304 -83.0495
rradius 27.4795
rwrist 6.27821
rhand -4.76292 -38.1802
rfingers 7.12502
rthumb 21.0212 -67.0609
lclavicle -2.80597e-014 1.78906e-014
lhumerus -31.3232 -8.01055 86.622
lradius 22.2329
lwrist 6.27091
lhand -2.96109 -13.8748
lfingers 7.12502
lthumb 22.7513 14.8037
rfemur -5.06763 13.62 16.8273
rtibia 23.5795
rfoot -41.3157 -17.9923
rtoes 18.442
lfemur -17.8672 -3.48997 -15.7429
ltibia 39.1555
lfoot -31.6467 -15.1648
ltoes -0.342001
746
root 12.9102 20.4968 10.1825 3.54388 4.65655 1.68164
lowerback -6.17282 1.02674 -0.616618
upperback -0.939723 1.46793 -2.10418
thorax 2.53172 0.73459 -1.69965
lowerneck -0.0853002 -3.01089 -0.132857
upperneck 6.24816 -4.18293 2.91502
head 2.03867 -2.02205 0.861624
rclavicle -7.78987e-015 1.35174e-014
rhumerus -37.6028 -7.06589 -83.1126
rradius 27.3719
rwrist 6.35387
rhand -4.73746 -38.2152
rfingers 7.12502
rthumb 21.0456 -67.0932
lclavicle -7.78987e-015 1.35174e-014
lhumerus -31.3817 -7.99078 86.5905
lradius 22.2418
lwrist 6.18361
lhand -2.94401 -13.8374
lfingers 7.12502
lthumb 22.7677 14.8391
rfemur -5.10992 13.6674 16.831
rtibia 23.611
rfoot -41.3499 -18.0778
rtoes 18.3396
lfemur -17.8951 -3.51977 -15.7439
ltibia 39.126
lfoot -31.5859 -15.1474
ltoes -0.247179
747
root 12.9076 20.4985 10.1809 3.57915 4.67197 1.69065
lowerback -6.10977 1.01837 -0.662132
upperback -0.964919 1.45765 -2.09159
thorax 2.46878 0.728937 -1.66323
lowerneck -0.138508 -3.02296 -0.156534
upperneck 6.26487 -4.20106 2.94095
head 2.05525 -2.03039 0.872646
rclavicle -1.59338e-014 2.78299e-015
rhumerus -37.6151 -6.99703 -83.1698
rradius 27.2533
rwrist 6.42832
rhand -4.70651 -38.2475
rfingers 7.12502
rthumb 21.0754 -67.1222
lclavicle -1.59338e-014 2.78299e-015
lhumerus -31.4077 -7.97158 86.5651
lradius 22.2397
lwrist 6.10012
lhand -2.93683 -13.7972
lfingers 7.12502
lthumb 22.7746 14.8785
rfemur -5.1545 13.7529 16.8414
rtibia 23.6347
rfoot -41.418 -18.1503
rtoes 18.348
lfemur -17.9328 -3.54301 -15.7369
ltibia 39.1014
lfoot -31.5152 -15.1362
ltoes -0.0919397
748
root 12.9051 20.5002 10.1796 3.61569 4.69988 1.68144
lowerback -6.06888 1.00954 -0.687497
upperback -0.979132 1.44599 -2.07571
thorax 2.42995 0.722813 -1.63438
lowerneck -0.193376 -3.03827 -0.162683
upperneck 6.27212 -4.22269 2.9507
head 2.06821 -2.04053 0.87552
rclavicle -2.20589e-014 1.19271e-014
rhumerus -37.6166 -6.94263 -83.2231
rradius 27.1328
rwrist 6.50912
rhand -4.6394 -38.2964
rfingers 7.12502
rthumb 21.1398 -67.1639
lclavicle -2.20589e-014 1.19271e-014
lhumerus -31.4054 -7.97562 86.5466
lradius 22.2267
lwrist 6.0276
lhand -2.93303 -13.7517
lfingers 7.12502
lthumb 22.7782 14.9235
rfemur -5.19304 13.8501 16.8705
rtibia 23.6444
rfoot -41.5046 -18.2043
rtoes 18.4398
lfemur -17.9795 -3.5553 -15.7079
ltibia 39.0878
lfoot -31.4373 -15.1497
ltoes 0.104424
749
root 12.9035 20.5014 10.1788 3.64869 4.74285 1.6481
lowerback -6.0477 1.00286 -0.670656
upperback -0.983231 1.43512 -2.06097
thorax 2.41366 0.717473 -1.62991
lowerneck -0.240767 -3.05454 -0.149258
upperneck 6.26905 -4.24485 2.94641
head 2.07558 -2.05098 0.870759
rclavicle 2.41896e-014 -8.34896e-015
rhumerus -37.6137 -6.91144 -83.2727
rradius 27.0159
rwrist 6.59905
rhand -4.5462 -38.3416
rfingers 7.12502
rthumb 21.2294 -67.1991
lclavicle 2.41896e-014 -8.34896e-015
lhumerus -31.3791 -8.01869 86.5355
lradius 22.197
lwrist 5.98229
lhand -2.93396 -13.7073
lfingers 7.12502
lthumb 22.7773 14.968
rfemur -5.21986 13.8998 16.9181
rtibia 23.6381
rfoot -41.5627 -18.2372
rtoes 18.5077
lfemur -18.0311 -3.55969 -15.6551
ltibia 39.0877
lfoot -31.3647 -15.1817
ltoes 0.268371
750
root 12.9031 20.5021 10.1787 3.67876 4.79965 1.60431
lowerback -6.03955 0.998194 -0.617964
upperback -0.983332 1.42515 -2.05309
thorax 2.40983 0.71292 -1.65231
lowerneck -0.260275 -3.07259 -0.116985
upperneck 6.24378 -4.26826 2.93083
head 2.06993 -2.06239 0.859708
rclavicle -5.59082e-017 1.51076e-014
rhumerus -37.619 -6.90449 -83.3179
rradius 26.9101
rwrist 6.68812
rhand -4.46502 -38.3514
rfingers 7.12502
rthumb 21.3074 -67.2001
lclavicle -5.59082e-017 1.51076e-014
lhumerus -31.3443 -8.10011 86.5315
lradius 22.1554
lwrist 5.9723
lhand -2.93411 -13.665
lfingers 7.12502
lthumb 22.7772 15.0103
rfemur -5.2367 13.8555 16.9648
rtibia 23.6192
rfoot -41.5557 -18.2512
rtoes 18.4531
lfemur -18.0853 -3.55816 -15.5969
ltibia 39.099
lfoot -31.3093 -15.2147
ltoes 0.312026
751
root 12.9037 20.5027 10.1788 3.70604 4.86685 1.56214
lowerback -6.03314 0.993297 -0.546285
upperback -0.985026 1.41386 -2.05238
thorax 2.40593 0.707895 -1.69288
lowerneck -0.228267 -3.09577 -0.068312
upperneck 6.17694 -4.29658 2.90446
head 2.04088 -2.07706 0.843334
rclavicle -9.88333e-015 3.1408e-014
rhumerus -37.6385 -6.90918 -83.3611
rradius 26.8167
rwrist 6.76908
rhand -4.4166 -38.333
rfingers 7.12502
rthumb 21.3539 -67.1764
lclavicle -9.88333e-015 3.1408e-014
lhumerus -31.317 -8.20737 86.5335
lradius 22.1148
lwrist 5.98691
lhand -2.93612 -13.6276
lfingers 7.12502
lthumb 22.7753 15.048
rfemur -5.24732 13.7175 16.9998
rtibia 23.5947
rfoot -41.4795 -18.263
rtoes 18.2362
lfemur -18.1395 -3.55133 -15.5462
ltibia 39.1159
lfoot -31.2719 -15.2415
ltoes 0.213642
752
root 12.9044 20.5032 10.1788 3.73085 4.93704 1.53187
lowerback -6.02287 0.988797 -0.47738
upperback -0.988497 1.40335 -2.05743
thorax 2.39813 0.703246 -1.73785
lowerneck -0.166741 -3.11577 -0.0118975
upperneck 6.08912 -4.31944 2.87
head 1.99925 -2.08954 0.823808
rclavicle -1.31198e-014 1.03368e-014
rhumerus -37.673 -6.9194 -83.4037
rradius 26.7358
rwrist 6.84548
rhand -4.40928 -38.2943
rfingers 7.12502
rthumb 21.3609 -67.137
lclavicle -1.31198e-014 1.03368e-014
lhumerus -31.3002 -8.32858 86.54
lradius 22.0841
lwrist 6.00824
lhand -2.95206 -13.6207
lfingers 7.12502
lthumb 22.76 15.0568
rfemur -5.25585 13.5431 17.0187
rtibia 23.5705
rfoot -41.3776 -18.2772
rtoes 17.9705
lfemur -18.191 -3.54638 -15.5115
ltibia 39.1322
lfoot -31.2439 -15.2654
ltoes 0.0653888
